<svg width="117" height="100" viewBox="0 0 117 100" fill="none" xmlns="http://www.w3.org/2000/svg">
<path d="M29.8106 27.7295H116.463L99.1129 90.3342H17.9668L0.253281 27.6367H5.5503L3.3719 19.2559H22.5789L29.8106 27.7295Z" fill="#F5CFFF"/>
<path d="M18.1177 90.3346L36.1523 27.7145H29.6132L22.4977 19.2988H3.35643L5.58125 27.641L0.253281 27.6719L18.1177 90.3346Z" fill="#9E3CB9"/>
<path d="M99.1129 90.5277H17.9667C17.8816 90.5277 17.8042 90.4697 17.781 90.3885L0.0675475 27.691C0.0520705 27.6329 0.063679 27.571 0.0985023 27.5207C0.133326 27.4743 0.191365 27.4433 0.253273 27.4433H5.29879L3.18617 19.3024C3.17069 19.2444 3.1823 19.1824 3.221 19.136C3.25582 19.0896 3.31386 19.0625 3.37577 19.0625H22.5828C22.6408 19.0625 22.695 19.0857 22.7298 19.1321L29.9034 27.5401H116.463C116.525 27.5401 116.579 27.5671 116.617 27.6174C116.652 27.6639 116.664 27.7296 116.648 27.7877L99.2986 90.3923C99.2793 90.4697 99.2019 90.5277 99.1129 90.5277ZM18.1138 90.1408H98.9659L116.207 27.9231H29.8067C29.7486 27.9231 29.6945 27.8999 29.6597 27.8535L22.486 19.4456H3.6234L5.73601 27.5865C5.75149 27.6445 5.73988 27.7064 5.70119 27.7529C5.66637 27.7993 5.60833 27.8264 5.54642 27.8264H0.508643L18.1138 90.1408Z" fill="#9E3CB9"/>
<path d="M30.3755 83.1607C30.3368 83.1607 30.2942 83.1491 30.2633 83.122C30.182 83.064 30.1588 82.9556 30.2091 82.8666L32.7667 78.4712C30.538 80.8701 28.2474 82.352 25.8097 82.9866C25.7091 83.0137 25.6008 82.9518 25.5737 82.8473C25.5466 82.7428 25.6085 82.6384 25.713 82.6113C28.584 81.8645 31.246 79.8951 33.8617 76.5985C33.9236 76.5172 34.0396 76.5017 34.1209 76.5598C34.2022 76.6178 34.2292 76.73 34.1789 76.819L31.1996 81.9303C31.5672 81.644 31.9619 81.3925 32.3797 81.1758C32.4803 81.1216 32.6699 81.0249 32.875 81.0791C33.0801 81.1332 33.1884 81.2996 33.2735 81.4312C33.2967 81.466 33.32 81.5008 33.3432 81.5356C33.6024 81.8761 34.1751 81.849 34.5813 81.6517C34.8058 81.5434 35.0108 81.3963 35.2275 81.2416C35.4519 81.0829 35.6841 80.9165 35.9433 80.7927C36.8139 80.3787 37.7774 80.5103 38.7098 80.6418C39.12 80.6999 39.5456 80.7579 39.9519 80.7656C40.9463 80.785 41.8904 80.518 42.8886 80.2317C43.7476 79.9841 44.6337 79.7325 45.5468 79.6861C45.6513 79.6706 45.7442 79.7635 45.7519 79.868C45.7558 79.9763 45.6745 80.0653 45.57 80.073C44.7033 80.1195 43.8366 80.3671 42.997 80.607C42.0142 80.8895 40.9966 81.1797 39.9441 81.1564C39.5185 81.1487 39.0813 81.0868 38.6595 81.0287C37.7464 80.9011 36.8797 80.7811 36.1136 81.1487C35.8853 81.257 35.6763 81.4079 35.4558 81.5627C35.2352 81.7213 35.007 81.88 34.7516 82.0038C34.1906 82.2747 33.4206 82.2785 33.0375 81.7717C33.0066 81.733 32.9795 81.6904 32.9524 81.644C32.8943 81.555 32.8402 81.4698 32.7821 81.4544C32.728 81.4428 32.6428 81.4776 32.5616 81.5202C31.7916 81.9187 31.1029 82.4449 30.5225 83.0911C30.4838 83.1375 30.4296 83.1607 30.3755 83.1607Z" fill="#000001"/>
<path d="M95.5432 59.9337C107.36 54.5013 111.784 38.8828 105.424 25.0488C99.0641 11.2148 84.3291 4.40389 72.5125 9.83623C60.6958 15.2686 56.2721 30.8871 62.6318 44.7211C68.9916 58.5551 83.7265 65.366 95.5432 59.9337Z" fill="#F5CFFF"/>
<path d="M94.9333 55.6058C104.298 51.3008 107.45 38.1545 101.974 26.2427C96.4977 14.3308 84.4671 8.16428 75.1027 12.4693C65.7383 16.7743 62.5862 29.9206 68.0622 41.8324C73.5383 53.7443 85.5689 59.9108 94.9333 55.6058Z" fill="white"/>
<path d="M95.7924 64.3291C96.2567 67.2233 97.1505 70.0518 98.4351 72.6867C98.4351 72.6867 110.008 99.3885 110.356 99.5781C111.01 99.9263 111.803 99.7445 112.515 99.5587C113.018 99.4272 113.541 99.284 113.92 98.928C114.33 98.545 114.504 97.9762 114.616 97.419C114.616 97.419 102.107 66.9215 102.057 66.7629C100.958 65.2229 99.859 63.6791 98.7563 62.1353C98.025 62.8936 97.0615 63.4392 95.7924 64.3291Z" fill="#9E3CB9"/>
<path d="M98.1836 58.5718C96.6746 59.543 95.0495 60.3323 93.3509 60.9049C93.3509 60.9049 95.0998 64.4608 95.0572 64.573C95.9085 64.2286 96.7945 63.9849 97.6187 63.5863C98.4467 63.1878 99.2283 62.6229 99.6539 61.8142L98.1836 58.5718Z" fill="#000001"/>
<path d="M77.0265 41.493C78.3087 41.493 79.3481 40.1279 79.3481 38.444C79.3481 36.7601 78.3087 35.395 77.0265 35.395C75.7444 35.395 74.705 36.7601 74.705 38.444C74.705 40.1279 75.7444 41.493 77.0265 41.493Z" fill="#9E3CB9"/>
<path d="M86.3475 38.6873C87.6297 38.6873 88.6691 37.3222 88.6691 35.6383C88.6691 33.9544 87.6297 32.5894 86.3475 32.5894C85.0654 32.5894 84.026 33.9544 84.026 35.6383C84.026 37.3222 85.0654 38.6873 86.3475 38.6873Z" fill="#9E3CB9"/>
<path d="M95.0534 35.9793C96.3355 35.9793 97.3749 34.6142 97.3749 32.9303C97.3749 31.2464 96.3355 29.8813 95.0534 29.8813C93.7712 29.8813 92.7318 31.2464 92.7318 32.9303C92.7318 34.6142 93.7712 35.9793 95.0534 35.9793Z" fill="#9E3CB9"/>
<path d="M94.9953 64.6155C95.0108 64.6194 95.0263 64.6194 95.0417 64.6194C95.1772 64.6078 98.3229 64.3331 99.8125 61.9844C99.8474 61.9341 99.8512 61.8645 99.8242 61.8064L98.3345 58.5137C98.2919 58.4209 98.1797 58.3783 98.0868 58.4208C97.994 58.4634 97.9514 58.5756 97.994 58.6685L99.4411 61.8684C98.1913 63.7256 95.7305 64.1551 95.1423 64.2286C94.8135 63.5244 94.4846 62.8241 94.1557 62.1199L93.5095 60.7385C93.467 60.6457 93.3547 60.6031 93.2619 60.6457C93.169 60.6882 93.1265 60.8004 93.169 60.8933L93.8152 62.2746C94.1634 63.0175 94.5116 63.7643 94.8599 64.5072C94.8792 64.5652 94.9334 64.6039 94.9953 64.6155Z" fill="#000001"/>
<path d="M97.9785 71.82C98.0133 71.8239 98.0482 71.8239 98.0791 71.8084C98.1758 71.7697 98.2184 71.6575 98.1797 71.5608L97.1543 69.038C96.7829 67.5909 96.4076 66.1245 96.0361 64.6503C96.0091 64.5497 95.9085 64.4916 95.8079 64.5149C95.7073 64.5419 95.6492 64.6425 95.6686 64.7431C96.0439 66.2173 96.4153 67.6838 96.7945 69.1541L97.8276 71.7001C97.8547 71.7697 97.9127 71.8123 97.9785 71.82Z" fill="#000001"/>
<path d="M97.6806 69.0031C97.6922 69.0031 97.7038 69.007 97.7154 69.0031C98.9149 68.9683 100.08 68.5117 100.985 67.7185C101.062 67.6527 101.07 67.5289 101.004 67.4515C100.938 67.3741 100.815 67.3664 100.741 67.4322C99.9131 68.1557 98.8065 68.5891 97.7038 68.6201C97.5993 68.6239 97.5181 68.709 97.5219 68.8135C97.5219 68.9141 97.5916 68.9876 97.6806 69.0031Z" fill="#000001"/>
<path d="M100.254 66.5269C100.296 66.5347 100.343 66.5269 100.377 66.4998C100.466 66.4457 100.494 66.3335 100.439 66.2445L100.037 65.579C99.7545 65.1146 99.4721 64.6542 99.1896 64.1938C99.1354 64.1048 99.0232 64.0777 98.9304 64.1319C98.8414 64.186 98.8143 64.2982 98.8685 64.3911C99.1509 64.8515 99.4334 65.3158 99.7158 65.7763L100.118 66.4418C100.153 66.4882 100.199 66.5192 100.254 66.5269Z" fill="#000001"/>
<path d="M99.058 67.1613C99.0928 67.1652 99.1277 67.1652 99.1625 67.1458C99.2553 67.1033 99.2979 66.9911 99.2592 66.8982C98.9497 66.1863 98.6053 65.4704 98.2261 64.7701C98.1758 64.6772 98.0636 64.6463 97.9708 64.6927C97.8779 64.743 97.8469 64.8552 97.8934 64.9481C98.2648 65.6407 98.6092 66.3488 98.9149 67.0491C98.9419 67.111 98.9961 67.1497 99.058 67.1613Z" fill="#000001"/>
<path d="M97.8701 67.5794C97.9011 67.5833 97.9359 67.5833 97.963 67.5717C98.0597 67.5369 98.11 67.4285 98.0713 67.3318C97.8314 66.6972 97.6264 66.0317 97.4561 65.3469C97.429 65.2463 97.3284 65.1844 97.2317 65.2115C97.1311 65.2385 97.0731 65.3391 97.0963 65.4359C97.2704 66.1285 97.4832 66.8133 97.727 67.4595C97.7502 67.5253 97.8082 67.5678 97.8701 67.5794Z" fill="#000001"/>
<path d="M108.867 83.8612C108.901 83.865 108.936 83.865 108.967 83.8496C109.064 83.8109 109.106 83.6987 109.064 83.6019L101.999 66.821C101.14 65.4512 100.335 64.2363 99.5339 63.0716C99.4759 62.9865 99.356 62.9633 99.2708 63.0252C99.1857 63.0832 99.1625 63.2032 99.2244 63.2883C100.025 64.4491 100.822 65.6602 101.67 67.0028L108.72 83.7567C108.751 83.8148 108.805 83.8534 108.867 83.8612Z" fill="#000001"/>
<path d="M103.132 83.7026C103.167 83.7065 103.198 83.7065 103.229 83.691C103.326 83.6523 103.372 83.5439 103.334 83.4472C102.656 81.7525 101.921 80.0655 101.147 78.4327C101.105 78.3398 100.989 78.2972 100.9 78.3398C100.807 78.3824 100.764 78.4984 100.807 78.5874C101.577 80.2125 102.304 81.8918 102.981 83.5749C103.012 83.6484 103.07 83.691 103.132 83.7026Z" fill="#000001"/>
<path d="M111.482 99.9999C112.419 99.965 113.351 99.5317 113.978 98.8391C113.986 98.8275 113.997 98.8197 114.001 98.8043L114.763 97.4771C114.794 97.4268 114.794 97.3649 114.775 97.3107L111.471 89.5838C111.428 89.491 111.32 89.4445 111.223 89.4871C111.13 89.5297 111.084 89.638 111.126 89.7347L114.396 97.3765L113.688 98.6031C113.127 99.2105 112.306 99.5936 111.482 99.6284C111.366 99.6052 110.685 99.4582 110.209 99.3537L107.199 92.3387C107.025 91.917 106.851 91.4914 106.68 91.0657L106.417 90.4118C106.379 90.3151 106.27 90.2687 106.17 90.3113C106.073 90.3499 106.03 90.4621 106.069 90.5589L106.332 91.2089C106.506 91.6345 106.677 92.0602 106.855 92.4896L109.904 99.5975C109.927 99.6555 109.977 99.6903 110.035 99.7058C111.08 99.9302 111.37 99.9921 111.482 99.9999Z" fill="#000001"/>
<path d="M62.2614 29.3277C62.3426 29.3393 62.42 29.3432 62.5013 29.3393C63.0081 29.3161 63.4144 28.964 63.7394 28.6738L64.3353 28.1437C64.7454 27.78 65.1556 27.4163 65.5696 27.0526C65.647 26.9868 65.6547 26.863 65.5889 26.7894C65.5232 26.7121 65.3993 26.7043 65.3258 26.7701C64.9118 27.1338 64.5017 27.4975 64.0915 27.8612L63.4957 28.3913C63.2016 28.6506 62.865 28.9446 62.4858 28.9601C62.2343 28.9756 61.9557 28.8595 61.7235 28.6389C61.503 28.4261 61.3482 28.1398 61.2089 27.8612C60.9033 27.2267 60.6982 26.5495 60.5898 25.8531C60.5744 25.7525 60.4815 25.679 60.3732 25.6944C60.2726 25.7099 60.199 25.8028 60.2145 25.9111C60.3267 26.6424 60.5473 27.3544 60.8646 28.0237C61.0193 28.3333 61.1935 28.6544 61.4527 28.9059C61.7003 29.1381 61.9828 29.2851 62.2614 29.3277Z" fill="white"/>
<path d="M61.9944 37.0275C62.3387 37.0816 62.6831 37.0004 62.9269 36.7953C63.1126 36.6328 63.2287 36.42 63.3138 36.2265C63.4453 35.9441 63.5537 35.6461 63.6582 35.3559C63.782 35.0155 63.9097 34.6634 64.076 34.3422C64.2734 33.9553 64.7106 33.2782 65.4187 33.1079C65.5193 33.0847 65.5812 32.9802 65.5541 32.8835C65.527 32.7829 65.4264 32.721 65.3297 32.7481C64.4784 32.957 63.9677 33.7309 63.7433 34.1758C63.5692 34.5163 63.4376 34.88 63.3099 35.2321C63.2054 35.5107 63.101 35.8048 62.9772 36.0718C62.9036 36.2265 62.8185 36.4006 62.687 36.509C62.4703 36.6908 62.1182 36.7218 61.797 36.5825C61.5301 36.4626 61.2786 36.2459 61.0116 35.8938C60.5318 35.2708 60.1758 34.5511 59.9862 33.816C59.9591 33.7154 59.8585 33.6573 59.7579 33.6806C59.6573 33.7076 59.5993 33.8082 59.6225 33.9088C59.8237 34.6904 60.2029 35.4566 60.7098 36.1182C60.9032 36.3697 61.2128 36.7295 61.6423 36.923C61.7583 36.9772 61.8783 37.0081 61.9944 37.0275Z" fill="white"/>
<path d="M65.4535 49.6725C65.4767 49.6764 65.5038 49.6764 65.527 49.6686C65.6276 49.6454 65.6895 49.541 65.6663 49.4442C64.9582 46.4417 65.3993 42.8974 66.9819 38.9082C67.0206 38.8115 66.9703 38.7032 66.8735 38.6645C66.7768 38.6258 66.6684 38.6761 66.6298 38.7728C64.9931 42.8897 64.5597 46.4107 65.2987 49.5332C65.3219 49.6067 65.38 49.6609 65.4535 49.6725Z" fill="white"/>
<path d="M73.7066 57.5C74.2406 57.5813 74.7939 57.5581 75.324 57.4072C76.8369 56.97 78.0441 55.5925 78.3227 53.979C78.342 53.8746 78.2723 53.7817 78.1717 53.7623C78.0518 53.7469 77.9744 53.8126 77.9551 53.9132C77.6997 55.3913 76.6008 56.6488 75.2195 57.0512C73.7995 57.4614 72.1551 56.8578 71.4083 55.6583C70.9362 54.9038 70.8008 53.9752 70.735 53.1665C70.5609 51.1042 70.7389 49.038 71.2574 47.0376C71.2845 46.9408 71.2226 46.8364 71.122 46.8093C71.0175 46.7861 70.9208 46.8441 70.8937 46.9447C70.3636 48.9877 70.1856 51.0926 70.3597 53.2013C70.4294 54.0525 70.5764 55.0392 71.091 55.8634C71.6443 56.7417 72.6387 57.3375 73.7066 57.5Z" fill="white"/>
<path d="M80.9847 61.0595C81.0234 61.0633 81.0621 61.0595 81.0969 61.044C82.8149 60.1889 83.9911 58.3974 84.0956 56.4821C84.0995 56.3815 84.0221 56.2964 83.9176 56.2848C83.817 56.2809 83.7241 56.3583 83.7203 56.4628C83.6274 58.2426 82.5285 59.9103 80.9305 60.7074C80.8377 60.7538 80.799 60.866 80.8454 60.9589C80.8725 61.013 80.9228 61.0479 80.9847 61.0595Z" fill="white"/>
<path d="M84.084 61.7524C84.142 61.7601 84.204 61.7408 84.2504 61.6943C84.3239 61.617 84.32 61.5009 84.2426 61.4274C83.8983 61.1024 83.7822 60.5336 83.9486 59.9803C84.084 59.5392 84.3781 59.1213 84.8927 58.626C85.5659 57.9799 86.332 57.4498 87.1755 57.0435C87.2684 56.9971 87.311 56.8849 87.2645 56.792C87.2181 56.6991 87.1059 56.6566 87.0169 56.703C86.1347 57.1248 85.3376 57.6781 84.6412 58.3552C84.2891 58.6918 83.8015 59.2142 83.5965 59.8719C83.3875 60.5607 83.5423 61.2803 83.9911 61.7021C84.0105 61.7292 84.0453 61.7485 84.084 61.7524Z" fill="white"/>
<path d="M90.5379 61.6015C90.6153 61.6131 90.6927 61.5744 90.7314 61.5009C91.9076 59.2606 93.4514 57.2602 95.3164 55.5577C95.3899 55.488 95.3977 55.3681 95.3319 55.2946C95.2584 55.2172 95.1423 55.2133 95.0688 55.2791C93.1728 57.0125 91.6019 59.0439 90.4063 61.3229C90.3599 61.4157 90.3947 61.528 90.4837 61.5783C90.4992 61.5937 90.5185 61.6015 90.5379 61.6015Z" fill="white"/>
<path d="M98.2455 53.6617C98.288 53.6695 98.3345 53.6617 98.3732 53.6346C100.118 52.5242 102.312 52.4855 104.03 52.5745C104.131 52.5783 104.223 52.5009 104.227 52.3965C104.231 52.2959 104.15 52.2069 104.049 52.1991C102.277 52.1063 100.006 52.1527 98.172 53.3174C98.083 53.3715 98.0597 53.4915 98.1139 53.5766C98.1449 53.623 98.1952 53.654 98.2455 53.6617Z" fill="white"/>
<path d="M102.966 47.2037C103.024 47.2115 103.086 47.1921 103.132 47.1457C104.316 45.8921 105.887 44.9944 107.563 44.6191C107.663 44.5959 107.725 44.4953 107.702 44.3946C107.679 44.294 107.578 44.2321 107.478 44.2554C105.729 44.6462 104.088 45.5825 102.854 46.8903C102.78 46.9677 102.784 47.0838 102.862 47.1573C102.896 47.1844 102.931 47.1999 102.966 47.2037Z" fill="white"/>
<path d="M104.618 38.1655C104.622 38.1655 104.626 38.1655 104.626 38.1655C104.73 38.1771 104.823 38.0997 104.835 37.9991C104.943 36.9428 105.199 35.9213 105.597 34.9618C105.837 34.3775 106.197 33.6501 106.812 33.2051C106.936 33.1122 107.373 32.8337 107.737 33.0078C107.834 33.0542 107.942 33.0155 107.988 32.9227C108.031 32.8298 107.996 32.7176 107.903 32.6712C107.532 32.4893 107.04 32.5744 106.591 32.8994C105.899 33.4024 105.516 34.1879 105.253 34.8186C104.843 35.8091 104.579 36.8654 104.467 37.9566C104.448 38.061 104.521 38.15 104.618 38.1655Z" fill="white"/>
<path d="M104.208 33.8007C104.316 33.8123 104.405 33.7388 104.421 33.6382C104.703 31.4327 105.319 29.2814 106.259 27.2462C106.305 27.1495 106.259 27.0411 106.17 26.9986C106.077 26.956 105.965 26.9986 105.922 27.0875C104.966 29.1576 104.34 31.3437 104.053 33.5879C104.038 33.6924 104.107 33.7852 104.208 33.8007Z" fill="white"/>
<path d="M99.0116 21.4116C99.0155 21.4116 99.0193 21.4116 99.0232 21.4116C99.1277 21.4232 99.2205 21.3459 99.2283 21.2414C99.3443 20.0535 99.3985 18.9121 98.7678 18.0183C98.4312 17.5385 97.9398 17.2019 97.4639 16.873C96.8835 16.4783 96.3379 16.0991 96.1019 15.5033C95.9394 15.097 95.9626 14.6404 95.9781 14.1606C95.9936 13.7969 96.009 13.4216 95.9433 13.054C95.9239 12.9534 95.8272 12.8838 95.7266 12.9031C95.626 12.9225 95.5563 13.0192 95.5757 13.1198C95.6337 13.4487 95.6221 13.7853 95.6066 14.1452C95.5873 14.6443 95.5641 15.155 95.7537 15.6387C96.0323 16.3429 96.6513 16.7647 97.2511 17.1825C97.696 17.4882 98.1604 17.8094 98.4583 18.2311C99.0116 19.0204 98.9613 20.0884 98.8491 21.2027C98.8452 21.3072 98.9187 21.4 99.0116 21.4116Z" fill="white"/>
<path d="M100.377 23.5474C100.397 23.5513 100.416 23.5513 100.435 23.5474C100.536 23.532 100.61 23.4391 100.594 23.3308C100.327 21.6128 100.54 19.8639 101.209 18.2698C101.252 18.173 101.202 18.0647 101.109 18.0221C101.012 17.9796 100.904 18.0299 100.861 18.1227C100.165 19.7788 99.9441 21.6012 100.223 23.3849C100.234 23.4701 100.3 23.5358 100.377 23.5474Z" fill="white"/>
<path d="M80.2225 11.3397C80.2998 11.3513 80.3811 11.3165 80.4198 11.2391C80.7371 10.6161 81.1704 10.1054 81.6773 9.76102C82.2422 9.38183 82.8922 9.21932 83.4958 9.30058C83.8209 9.34701 84.1652 9.46309 84.5444 9.65655C85.6433 10.206 86.5913 11.0959 87.2103 12.1716C87.2606 12.2644 87.3767 12.2915 87.4657 12.2412C87.5586 12.1909 87.5857 12.0748 87.5354 11.9858C86.8814 10.8483 85.8793 9.90805 84.7147 9.32767C84.3007 9.11486 83.9215 8.98717 83.55 8.93687C82.8497 8.84014 82.1145 9.02973 81.4722 9.45535C80.9112 9.83067 80.4314 10.3917 80.087 11.0727C80.0406 11.1656 80.0793 11.2778 80.1683 11.3242C80.1838 11.3319 80.2031 11.3397 80.2225 11.3397Z" fill="white"/>
<path d="M78.1485 11.6144C78.1524 11.6144 78.1524 11.6144 78.1563 11.6144C78.2607 11.626 78.3497 11.5525 78.3652 11.448C78.5084 10.264 79.0191 9.111 79.7968 8.19786C79.8665 8.12047 79.8549 8.00052 79.7775 7.93474C79.7001 7.8651 79.5802 7.87671 79.5144 7.95409C78.6902 8.92141 78.1485 10.148 78.0015 11.4016C77.9783 11.5099 78.0479 11.5989 78.1485 11.6144Z" fill="white"/>
<path d="M63.2209 20.1809C63.2403 20.1848 63.2596 20.1848 63.279 20.1848C63.7355 20.2235 64.1302 19.9526 64.3894 19.7398C65.0317 19.2097 65.5154 18.5249 65.9913 17.8632C66.208 17.5537 66.4363 17.2325 66.6762 16.9385C66.8735 16.687 67.0979 16.4393 67.3804 16.2884C67.659 16.1337 67.9724 16.1066 68.2045 16.2188C68.6224 16.4161 68.7462 16.9965 68.812 17.5421C68.8236 17.6465 68.9165 17.7162 69.021 17.7085C69.1254 17.6968 69.1951 17.604 69.1873 17.4995C69.1099 16.8533 68.9513 16.1569 68.367 15.8822C68.0227 15.7158 67.5855 15.7467 67.2024 15.9673C66.8619 16.1491 66.6104 16.4355 66.386 16.7102C66.1422 17.0159 65.9139 17.3409 65.6934 17.6504C65.2368 18.2927 64.7686 18.9582 64.1612 19.4535C63.8323 19.7205 63.5653 19.8365 63.3215 19.8133C63.1784 19.8017 63.0275 19.7089 62.9462 19.5812C62.9114 19.5193 62.8727 19.4264 62.9075 19.3297C62.9462 19.2329 62.8959 19.1246 62.7992 19.0859C62.7025 19.0472 62.5941 19.0975 62.5554 19.1943C62.4819 19.3838 62.5051 19.5928 62.6251 19.7824C62.745 19.9952 62.9772 20.1461 63.2209 20.1809Z" fill="white"/>
<path d="M86.0109 56.9736C89.1489 57.4534 92.221 57.0588 95.0069 55.7742C99.592 53.6693 102.854 49.4208 104.2 43.8181C105.543 38.2348 104.808 31.9589 102.146 26.1627C99.4798 20.3627 95.1965 15.7273 90.0813 13.1078C84.9507 10.4767 79.6034 10.1904 75.0222 12.2992C65.5773 16.6405 62.3774 29.9275 67.8873 41.9106C70.5532 47.7106 74.8365 52.346 79.9516 54.9655C81.9598 55.9947 83.995 56.668 86.0109 56.9736ZM83.964 11.4711C85.9412 11.7729 87.9378 12.4268 89.9072 13.4406C94.945 16.0214 99.1702 20.5948 101.801 26.3175C104.432 32.0401 105.152 38.2271 103.833 43.7292C102.517 49.2196 99.3289 53.3752 94.8521 55.4337C90.3754 57.4921 85.1442 57.2058 80.1219 54.6327C75.0841 52.0519 70.8589 47.4785 68.2278 41.7558C62.8031 29.9546 65.9217 16.8958 75.177 12.6397C77.9009 11.3899 80.9035 11.003 83.964 11.4711Z" fill="#9E3CB9"/>
<path d="M83.5694 61.7367C87.725 62.3713 91.8535 61.8296 95.6183 60.1C107.508 54.6366 111.981 38.8771 105.589 24.971C102.494 18.2385 97.3478 12.9415 91.0874 10.0473C84.823 7.1492 78.195 7.01377 72.4298 9.66421C60.5395 15.1315 56.0667 30.8871 62.4587 44.7932C65.5541 51.5257 70.7002 56.8228 76.9607 59.717C79.1352 60.7268 81.36 61.3962 83.5694 61.7367ZM84.4245 8.39897C86.6029 8.73172 88.789 9.39337 90.9326 10.3839C97.1079 13.2394 102.192 18.4707 105.249 25.1258C111.552 38.8423 107.164 54.3774 95.4596 59.7595C89.795 62.3635 83.2831 62.2281 77.1155 59.3803C70.9401 56.5248 65.8559 51.2936 62.7992 44.6385C56.4962 30.9219 60.8839 15.383 72.5884 10.0047C76.2836 8.30611 80.3385 7.77215 84.4245 8.39897Z" fill="#9E3CB9"/>
<path d="M84.7534 60.5218C88.8045 61.1409 92.9523 60.7926 96.7635 59.4384C96.8603 59.4036 96.9106 59.2991 96.8757 59.1985C96.8409 59.1018 96.7365 59.0515 96.6359 59.0863C90.6192 61.2183 83.7396 60.8236 77.7655 57.999C72.0583 55.2983 67.2411 50.3186 64.5403 44.3483C61.9286 38.5715 61.2205 31.8235 62.5399 25.3464C63.0004 23.0712 63.7162 20.8193 64.6603 18.6487C65.3529 17.0855 66.4827 14.8258 68.3322 13.282C68.4096 13.2162 68.4212 13.1002 68.3593 13.015C68.2935 12.9376 68.1775 12.926 68.0923 12.9879C66.1809 14.5821 65.024 16.892 64.3159 18.4939C63.3563 20.6878 62.6328 22.9629 62.1685 25.269C60.8336 31.8235 61.5533 38.6527 64.196 44.5031C66.9315 50.5546 71.8145 55.6001 77.603 58.3395C79.8936 59.4152 82.308 60.1465 84.7534 60.5218Z" fill="#9E3CB9"/>
</svg>
